<svg width="48" height="39" xmlns="http://www.w3.org/2000/svg"><g fill="none" fill-rule="evenodd"><path d="M0 0h39v39H0z" fill="#F6F6F6"/><path fill="#D1D2D4" d="M13.453 19.421v5.07l27.34-.203V19.42z"/><path d="M42.82 30.175a.663.663 0 0 1-.667-.659v-2.021c0-.364.299-.659.667-.659.368 0 .667.295.667.659v2.021a.663.663 0 0 1-.667.659Z" fill="#888"/><path d="M13.18 30.175a.663.663 0 0 1-.667-.659v-2.021c0-.364.299-.659.667-.659.368 0 .667.295.667.659v2.021a.663.663 0 0 1-.667.659Z" fill="#888" fill-rule="nonzero"/><path d="M42.82 28.153H13.18a.663.663 0 0 1-.667-.658v-3.056c0-.364.299-.659.667-.659h29.64c.368 0 .667.295.667.659v3.03a.654.654 0 0 1-.186.482.67.67 0 0 1-.481.202Zm-28.973-1.317h28.306v-1.738H13.847v1.738Z" fill="#888"/><path d="M42.82 25.098h-2.047a.663.663 0 0 1-.666-.659V11.341a1.685 1.685 0 0 1 1.69-1.568c.894 0 1.634.686 1.69 1.568v13.098a.663.663 0 0 1-.667.659Zm-1.38-1.318h.713V11.34a.359.359 0 0 0-.356-.307.359.359 0 0 0-.357.308v12.44Z" fill="#888"/><path d="M40.773 25.098H13.18a.663.663 0 0 1-.667-.659v-4.01a1.683 1.683 0 0 1 1.694-1.667h25.546c.932 0 1.687.746 1.687 1.667v4.01a.663.663 0 0 1-.667.659ZM13.847 23.78h26.26V20.43a.347.347 0 0 0-.104-.247.356.356 0 0 0-.25-.102H14.207a.358.358 0 0 0-.36.349v3.351Z" fill="#888"/><path d="M32.6 18.82H15.227c-.369 0-.667-.184-.667-.41 0-.92 1.21-1.667 2.707-1.67h13.286c1.497.003 2.71.749 2.714 1.67 0 .109-.07.213-.196.29a.918.918 0 0 1-.471.12ZM16.067 18H31.76c-.241-.271-.704-.44-1.207-.439H17.267c-.5 0-.961.168-1.2.439Z" fill="#1C1C1C"/><path d="M40.065 18.869a.506.506 0 0 1-.173 0 .283.283 0 0 0-.093 0h-6.4a.67.67 0 0 1-.467-.198l-.133-.125a2.611 2.611 0 0 1 0-3.7l2.106-2.082a2.738 2.738 0 0 1 3.747 0l2.08 2.042a2.611 2.611 0 0 1 0 3.7l-.173.165a.67.67 0 0 1-.494.198Zm-6.426-1.357h6.186c.45-.518.424-1.29-.06-1.778l-2.1-2.08a1.345 1.345 0 0 0-1.866 0l-2.1 2.08a1.305 1.305 0 0 0-.04 1.778h-.02Z" fill="#1C1C1C"/><path fill="#1C1C1C" d="M15.667 17.195h16.667v1.317H15.667z"/></g></svg>
