<svg width="48" height="39" xmlns="http://www.w3.org/2000/svg"><g fill="none" fill-rule="evenodd"><path d="M0 0h39v39H0z" fill="#F6F6F6"/><path d="M25.733 17.327v-.33c0-.921-.8-1.646-3.266-1.646-2.467 0-3.267.725-3.267 1.647v.329" fill="#D1D2D4"/><path d="M33.267 13.441c-3 0-4.534.659-5.334 1.581-.733-.856-2.333-1.58-5.333-1.58-4.933 0-6 1.843-6 3.358v.527h1.333V16.8c0-1.712 2.534-2.041 4.667-2.041s4.667.329 4.667 2.041v.527H28.6V16.8c0-1.712 2.533-2.041 4.667-2.041 2.133 0 4.666.329 4.666 2.041v.527h1.334V16.8c0-1.515-1.067-3.359-6-3.359Z" fill="#1C1C1C"/><path d="M42 21.739v-.132c0-.856-.667-1.514-1.533-1.514H15.6c-.867 0-1.533.658-1.533 1.514v.132c0 .395.333.79.8.79h26.4c.4-.066.733-.395.733-.79Z" fill="#D1D2D4"/><path d="M41.867 17.327h-1.334v-5.005c0-.263-.2-.527-.466-.593-2.4-.79-6.8-1.58-12.134-1.58-5.333 0-9.733.856-12.133 1.58a.634.634 0 0 0-.467.593v5.005H14v-5.005c0-.856.533-1.58 1.333-1.844 3.2-1.054 7.934-1.646 12.6-1.646 4.667 0 9.4.658 12.6 1.646a1.92 1.92 0 0 1 1.334 1.844v5.005ZM43.867 21.278c0-1.778-1.467-3.293-3.334-3.293h-25.2c-1.8 0-3.333 1.45-3.333 3.293v1.317c0 .527.2.988.533 1.317-.333.33-.533.79-.533 1.317v1.976c0 .395.267.658.667.658h.666v1.976h1.334v-1.976H43.2c.4 0 .667-.263.667-.658v-1.976c0-.527-.2-.988-.534-1.317.334-.33.534-.79.534-1.317v-1.317Zm-30.467 0c0-1.054.867-1.976 2-1.976h25.2c1.067 0 2 .857 2 1.976v1.317c0 .33-.267.659-.667.659H14.067a.664.664 0 0 1-.667-.659v-1.317Zm29.133 5.268H13.4V25.23c0-.329.267-.658.667-.658h27.866c.334 0 .667.263.667.658v1.317h-.067Z" fill="#888"/><path fill="#1C1C1C" d="M41.2 27.205h1.333v2.634H41.2zM13.335 27.205h1.333v2.634h-1.333z"/><path d="M36.533 17.327v-.33c0-.921-.8-1.646-3.266-1.646-2.467 0-3.267.725-3.267 1.647v.329" fill="#D1D2D4"/></g></svg>
