<svg width="48" height="39" xmlns="http://www.w3.org/2000/svg"><g fill="none" fill-rule="evenodd"><path d="M0 0h39v39H0z" fill="#F6F6F6"/><path d="M17.531 12.966V11.34c0-1.654 1.349-1.475 3.024-1.475h.532v.842a1.49 1.49 0 0 0 .465 1.1c.3.267.685.422 1.089.435a1.545 1.545 0 0 0 1.088-.466c.472-.436.472-.782.472-1.505v-.436h8.223v.842a1.39 1.39 0 0 0 .496 1.1c.299.267.684.422 1.088.435a1.545 1.545 0 0 0 1.088-.466c.393-.398.568-.957.472-1.505v-.436h.556c1.645 0 2.564-.304 2.564 1.32l.43 1.792-21.587.048Z" fill="#D1D2D4"/><path d="M39.722 12.631c-.016-1.949-1.607-3.528-3.58-3.553v-.204a2.153 2.153 0 0 0-2.161-2.025c-1.151 0-2.101.89-2.162 2.025v.245h-7.014v-.245a2.153 2.153 0 0 0-2.161-2.025c-1.151 0-2.101.89-2.162 2.025v.281c-1.975.04-3.556 1.632-3.555 3.584v15.487c0 1.98 1.624 3.584 3.628 3.584h15.581c2.004 0 3.628-1.605 3.628-3.584l-.042-15.595Zm-21.586.078a2.338 2.338 0 0 1 .672-1.675 2.396 2.396 0 0 1 1.674-.714v.245c-.001.549.216 1.076.605 1.469l.175.155a2.14 2.14 0 0 0 3.09-.322c.037-.044.072-.09.103-.138.15-.21.252-.45.296-.704a.667.667 0 0 0 0-.108v-.209a1.133 1.133 0 0 0 0-.131v-.263h7.014v.275c0 1.178.965 2.135 2.158 2.138a2.127 2.127 0 0 0 1.597-.729c.44-.457.661-1.08.604-1.708 1.306.016 2.363 1.052 2.389 2.341v1.028l-20.377.06v-1.01Zm20.4 15.487c0 1.32-1.082 2.39-2.418 2.39H20.512c-1.336 0-2.418-1.07-2.418-2.39V15.02h20.443v13.176Z" fill="#888"/><path d="M22.473 25.756c.107 0 .194.087.194.194v2.246a.194.194 0 0 1-.194.194h-2.279a.194.194 0 0 1-.194-.194V25.95c0-.107.087-.194.194-.194h2.279Zm9.333 0c.107 0 .194.087.194.194v2.246a.194.194 0 0 1-.194.194h-2.279a.194.194 0 0 1-.194-.194V25.95c0-.107.087-.194.194-.194h2.28Zm-9.333-4.61c.107 0 .194.087.194.194v2.247a.194.194 0 0 1-.194.193h-2.279a.194.194 0 0 1-.194-.193V21.34c0-.107.087-.194.194-.194h2.279Zm4.666 0c.107 0 .194.087.194.194v2.247a.194.194 0 0 1-.194.193h-2.278a.194.194 0 0 1-.194-.193V21.34c0-.107.087-.194.194-.194h2.278Zm9.334 0c.107 0 .194.087.194.194v2.247a.194.194 0 0 1-.194.193h-2.279a.194.194 0 0 1-.194-.193V21.34c0-.107.087-.194.194-.194h2.279Zm-9.334-4.61c.107 0 .194.087.194.195v2.246a.194.194 0 0 1-.194.194h-2.278a.194.194 0 0 1-.194-.194V16.73c0-.108.087-.194.194-.194h2.278Zm4.667 0c.107 0 .194.087.194.195v2.246a.194.194 0 0 1-.194.194h-2.279a.194.194 0 0 1-.194-.194V16.73c0-.108.087-.194.194-.194h2.28Z" fill="#888"/><path d="M27.14 25.756c.106 0 .193.087.193.194v2.246a.194.194 0 0 1-.194.194h-2.278a.194.194 0 0 1-.194-.194V25.95c0-.107.087-.194.194-.194h2.278Zm4.666-4.61c.107 0 .194.087.194.194v2.247a.194.194 0 0 1-.194.193h-2.279a.194.194 0 0 1-.194-.193V21.34c0-.107.087-.194.194-.194h2.28Zm4.667-4.61c.107 0 .194.087.194.195v2.246a.194.194 0 0 1-.194.194h-2.279a.194.194 0 0 1-.194-.194V16.73c0-.108.087-.194.194-.194h2.279Zm-14 0c.107 0 .194.087.194.195v2.246a.194.194 0 0 1-.194.194h-2.279a.194.194 0 0 1-.194-.194V16.73c0-.108.087-.194.194-.194h2.279ZM21.691 8.874a.95.95 0 0 1 .953-.868.95.95 0 0 1 .952.868v1.279a3.5 3.5 0 0 1-.036.686.82.82 0 0 1-.127.287c-.041.051-.086.099-.133.144a.955.955 0 0 1-.66.292 1.06 1.06 0 0 1-.604-.215.934.934 0 0 1-.363-.729M33.053 8.928a.94.94 0 0 1 .453-.88.965.965 0 0 1 .998 0 .94.94 0 0 1 .453.88v1.278c.02.219.02.439 0 .657a.867.867 0 0 1-.127.287 1.37 1.37 0 0 1-.133.137.93.93 0 0 1-.659.293 1.097 1.097 0 0 1-.604-.209.952.952 0 0 1-.37-.735" fill="#1C1C1C"/></g></svg>
