<svg width="48" height="39" xmlns="http://www.w3.org/2000/svg"><g fill="none" fill-rule="evenodd"><path d="M0 0h39v39H0z" fill="#F6F6F6"/><path fill="#1C1C1C" d="M27.333 20.488h2v8.561h-2z"/><path d="M33.822 6.534H22.33c-.982 0-1.777.786-1.777 1.755V19.64c0 .97.795 1.755 1.777 1.755h3.92v7.143h-1.28c-1.207.003-2.184.968-2.187 2.16v1.166c0 .339.278.613.621.613h9.318a.625.625 0 0 0 .44-.18.61.61 0 0 0 .182-.433v-1.166c-.004-1.182-.966-2.143-2.162-2.16h-1.243v-7.143h3.92c.981 0 1.777-.786 1.777-1.755V8.29c0-.472-.192-.924-.534-1.254a1.788 1.788 0 0 0-1.28-.501Zm-1.715 24.165v.552h-8.075V30.7c0-.513.419-.93.938-.933h6.212c.514.01.926.425.925.933Zm-3.447-2.16h-1.168v-7.143h1.168v7.143Zm5.696-8.898c0 .292-.239.528-.534.528H22.33a.531.531 0 0 1-.535-.528V8.29a.519.519 0 0 1 .155-.375c.1-.1.237-.155.38-.153h11.492a.532.532 0 0 1 .38.153c.1.1.156.234.154.375V19.64Z" fill="#888"/><path d="M28.51 8.964h-3.615v9.996h2.118v-3.142h1.498c1.917 0 3.472-1.536 3.472-3.43 0-1.895-1.555-3.43-3.472-3.43v.006Zm0 4.774h-1.497v-2.682h1.498c.506-.034.99.214 1.254.643a1.33 1.33 0 0 1 0 1.396 1.365 1.365 0 0 1-1.254.643Z" fill="#D2D2D4"/></g></svg>
