<svg width="48" height="39" xmlns="http://www.w3.org/2000/svg"><g fill="none" fill-rule="evenodd"><path d="M0 0h39v39H0z" fill="#F6F6F6"/><g transform="translate(14 6)"><path fill="#D1D2D4" d="M10.331 1.608H26.65v2.645H10.331z"/><path d="m19.661 23.846-1.46-4.21h-3.435l.621-6.75a.618.618 0 0 0-.568-.665.621.621 0 0 0-.674.561l-1.013 11.211a.616.616 0 0 0 .566.663h.056a.618.618 0 0 0 .62-.558l.287-3.234h2.652l1.174 3.375a.62.62 0 0 0 .584.417.792.792 0 0 0 .205 0 .619.619 0 0 0 .37-.323.607.607 0 0 0 .015-.487Z" fill="#888"/><rect fill="#1C1C1C" x="18.81" y="15.881" width="8.088" height="2.24" rx=".255"/><path d="M26.644 15.267h-7.579a.87.87 0 0 0-.876.86v1.742a.87.87 0 0 0 .876.86h3.168v4.362h-.963a.617.617 0 0 0-.62.614c0 .339.277.613.62.613h3.168a.617.617 0 0 0 .622-.613.617.617 0 0 0-.622-.614h-.962v-4.363h3.168a.87.87 0 0 0 .876-.859v-1.743a.87.87 0 0 0-.876-.859Zm-.367 2.234h-6.833v-1.006h6.833V17.5Z" fill="#888"/><path d="M28.184 4.731V1.05a.895.895 0 0 0-.218-.664.918.918 0 0 0-.633-.312H9.647a.89.89 0 0 0-.913.86v3.909a.89.89 0 0 0 .913.859h.336V25.705H8.809a.617.617 0 0 0-.621.614c0 .339.278.614.62.614h18.755a.617.617 0 0 0 .621-.614.617.617 0 0 0-.62-.614H11.212V5.701h16.12a.917.917 0 0 0 .63-.31c.16-.182.24-.42.221-.66Zm-1.242-.258H9.977V1.301h16.965v3.172Z" fill="#888"/><path d="M6.933 7.492c0-.35-.142-.687-.394-.935a1.344 1.344 0 0 0-1.743-.12 1.554 1.554 0 0 0-1.432-.668 1.545 1.545 0 0 0-1.277.926 1.155 1.155 0 0 0-1.233.057 1.123 1.123 0 0 0 .388 2.017h.081a.503.503 0 0 0 .093 0h4.349a.445.445 0 0 0 .248-.08 1.31 1.31 0 0 0 .92-1.197Z" fill="#D1D2D4"/><path d="M28.02 25.683c.358 0 .647.295.647.658 0 .338-.25.617-.57.655L28.02 27H8.646A.652.652 0 0 1 8 26.341c0-.337.25-.616.57-.654l.076-.004H28.02Z" fill="#1C1C1C"/></g></g></svg>
