<svg width="48" height="39" xmlns="http://www.w3.org/2000/svg"><g fill="none" fill-rule="evenodd"><path d="M0 0h39v39H0z" fill="#F6F6F6"/><path d="M35.289 30.973H20.407c-2.333 0-4.2-1.844-4.2-4.149v-14.7c0-2.304 1.867-4.148 4.2-4.148H35.29c2.333 0 4.2 1.844 4.2 4.148v14.7c0 2.305-1.867 4.15-4.2 4.15ZM20.407 9c-1.763 0-3.163 1.383-3.163 3.124v14.7c0 1.742 1.4 3.125 3.163 3.125H35.29c1.763 0 3.163-1.383 3.163-3.125v-14.7c0-1.741-1.4-3.124-3.163-3.124H20.407Z" fill="#888"/><path d="M33.94 28.515H21.757c-1.66 0-3.008-1.332-3.008-2.971v-12.14c0-1.638 1.348-2.97 3.008-2.97h12.237c1.659 0 3.007 1.332 3.007 2.97v12.089c0 1.639-1.4 3.022-3.06 3.022Z" fill="#D1D2D4"/><path d="M32.333 20.934v2.1l-7.881-7.785h2.23v-1.025h-3.319c-.311 0-.519.205-.519.513v3.483h1.037v-2.05l7.83 7.684h-2.126v1.024h3.319c.31 0 .518-.205.518-.512v-3.432h-1.089Z" fill="#1C1C1C"/></g></svg>
